<svg id="visual" viewBox="0 0 900 600" width="900" height="600" xmlns="http://www.w3.org/2000/svg" xmlns:xlink="http://www.w3.org/1999/xlink" version="1.1"><path d="M0 115L75 115L75 97L150 97L150 103L225 103L225 73L300 73L300 49L375 49L375 61L450 61L450 55L525 55L525 49L600 49L600 127L675 127L675 79L750 79L750 61L825 61L825 61L900 61L900 91L900 0L900 0L825 0L825 0L750 0L750 0L675 0L675 0L600 0L600 0L525 0L525 0L450 0L450 0L375 0L375 0L300 0L300 0L225 0L225 0L150 0L150 0L75 0L75 0L0 0Z" fill="#111133"></path><path d="M0 247L75 247L75 187L150 187L150 271L225 271L225 139L300 139L300 157L375 157L375 109L450 109L450 145L525 145L525 169L600 169L600 235L675 235L675 247L750 247L750 175L825 175L825 133L900 133L900 205L900 89L900 59L825 59L825 59L750 59L750 77L675 77L675 125L600 125L600 47L525 47L525 53L450 53L450 59L375 59L375 47L300 47L300 71L225 71L225 101L150 101L150 95L75 95L75 113L0 113Z" fill="#181353"></path><path d="M0 313L75 313L75 217L150 217L150 307L225 307L225 235L300 235L300 247L375 247L375 181L450 181L450 259L525 259L525 283L600 283L600 325L675 325L675 283L750 283L750 211L825 211L825 247L900 247L900 265L900 203L900 131L825 131L825 173L750 173L750 245L675 245L675 233L600 233L600 167L525 167L525 143L450 143L450 107L375 107L375 155L300 155L300 137L225 137L225 269L150 269L150 185L75 185L75 245L0 245Z" fill="#221166"></path><path d="M0 481L75 481L75 415L150 415L150 541L225 541L225 337L300 337L300 325L375 325L375 355L450 355L450 391L525 391L525 367L600 367L600 457L675 457L675 541L750 541L750 349L825 349L825 379L900 379L900 349L900 263L900 245L825 245L825 209L750 209L750 281L675 281L675 323L600 323L600 281L525 281L525 257L450 257L450 179L375 179L375 245L300 245L300 233L225 233L225 305L150 305L150 215L75 215L75 311L0 311Z" fill="#181353"></path><path d="M0 601L75 601L75 601L150 601L150 601L225 601L225 601L300 601L300 601L375 601L375 601L450 601L450 601L525 601L525 601L600 601L600 601L675 601L675 601L750 601L750 601L825 601L825 601L900 601L900 601L900 347L900 377L825 377L825 347L750 347L750 539L675 539L675 455L600 455L600 365L525 365L525 389L450 389L450 353L375 353L375 323L300 323L300 335L225 335L225 539L150 539L150 413L75 413L75 479L0 479Z" fill="#111133"></path></svg>