<svg id="visual" viewBox="0 0 900 90" width="900" height="90" xmlns="http://www.w3.org/2000/svg" xmlns:xlink="http://www.w3.org/1999/xlink" version="1.1"><rect x="0" y="0" width="900" height="90" fill="#114"></rect><path d="M0 42L21.5 40.5C43 39 86 36 128.8 35.8C171.7 35.7 214.3 38.3 257.2 39.3C300 40.3 343 39.7 385.8 37.7C428.7 35.7 471.3 32.3 514.2 32C557 31.7 600 34.3 642.8 37C685.7 39.7 728.3 42.3 771.2 41.8C814 41.3 857 37.7 878.5 35.8L900 34L900 91L878.5 91C857 91 814 91 771.2 91C728.3 91 685.7 91 642.8 91C600 91 557 91 514.2 91C471.3 91 428.7 91 385.8 91C343 91 300 91 257.2 91C214.3 91 171.7 91 128.8 91C86 91 43 91 21.5 91L0 91Z" fill="#445566"></path><path d="M0 46L21.5 45.8C43 45.7 86 45.3 128.8 46.3C171.7 47.3 214.3 49.7 257.2 48.8C300 48 343 44 385.8 41.5C428.7 39 471.3 38 514.2 37.7C557 37.3 600 37.7 642.8 38.7C685.7 39.7 728.3 41.3 771.2 41C814 40.7 857 38.3 878.5 37.2L900 36L900 91L878.5 91C857 91 814 91 771.2 91C728.3 91 685.7 91 642.8 91C600 91 557 91 514.2 91C471.3 91 428.7 91 385.8 91C343 91 300 91 257.2 91C214.3 91 171.7 91 128.8 91C86 91 43 91 21.5 91L0 91Z" fill="#395062"></path><path d="M0 54L21.5 55.7C43 57.3 86 60.7 128.8 61.8C171.7 63 214.3 62 257.2 58.8C300 55.7 343 50.3 385.8 48C428.7 45.7 471.3 46.3 514.2 49.2C557 52 600 57 642.8 59.8C685.7 62.7 728.3 63.3 771.2 61.7C814 60 857 56 878.5 54L900 52L900 91L878.5 91C857 91 814 91 771.2 91C728.3 91 685.7 91 642.8 91C600 91 557 91 514.2 91C471.3 91 428.7 91 385.8 91C343 91 300 91 257.2 91C214.3 91 171.7 91 128.8 91C86 91 43 91 21.5 91L0 91Z" fill="#2e4c5e"></path><path d="M0 66L21.5 65C43 64 86 62 128.8 62C171.7 62 214.3 64 257.2 65.7C300 67.3 343 68.7 385.8 68.2C428.7 67.7 471.3 65.3 514.2 63.2C557 61 600 59 642.8 58.7C685.7 58.3 728.3 59.7 771.2 60C814 60.3 857 59.7 878.5 59.3L900 59L900 91L878.5 91C857 91 814 91 771.2 91C728.3 91 685.7 91 642.8 91C600 91 557 91 514.2 91C471.3 91 428.7 91 385.8 91C343 91 300 91 257.2 91C214.3 91 171.7 91 128.8 91C86 91 43 91 21.5 91L0 91Z" fill="#21485a"></path><path d="M0 79L21.5 77.7C43 76.3 86 73.7 128.8 73C171.7 72.3 214.3 73.7 257.2 75.2C300 76.7 343 78.3 385.8 77.5C428.7 76.7 471.3 73.3 514.2 72.3C557 71.3 600 72.7 642.8 72.5C685.7 72.3 728.3 70.7 771.2 71.2C814 71.7 857 74.3 878.5 75.7L900 77L900 91L878.5 91C857 91 814 91 771.2 91C728.3 91 685.7 91 642.8 91C600 91 557 91 514.2 91C471.3 91 428.7 91 385.8 91C343 91 300 91 257.2 91C214.3 91 171.7 91 128.8 91C86 91 43 91 21.5 91L0 91Z" fill="#114455"></path></svg>